%TF.GenerationSoftware,KiCad,Pcbnew,7.0.8*%
%TF.CreationDate,2023-11-07T13:43:57-08:00*%
%TF.ProjectId,Rubiks-Cube,52756269-6b73-42d4-9375-62652e6b6963,rev?*%
%TF.SameCoordinates,Original*%
%TF.FileFunction,Copper,L2,Bot*%
%TF.FilePolarity,Positive*%
%FSLAX46Y46*%
G04 Gerber Fmt 4.6, Leading zero omitted, Abs format (unit mm)*
G04 Created by KiCad (PCBNEW 7.0.8) date 2023-11-07 13:43:57*
%MOMM*%
%LPD*%
G01*
G04 APERTURE LIST*
G04 Aperture macros list*
%AMHorizOval*
0 Thick line with rounded ends*
0 $1 width*
0 $2 $3 position (X,Y) of the first rounded end (center of the circle)*
0 $4 $5 position (X,Y) of the second rounded end (center of the circle)*
0 Add line between two ends*
20,1,$1,$2,$3,$4,$5,0*
0 Add two circle primitives to create the rounded ends*
1,1,$1,$2,$3*
1,1,$1,$4,$5*%
%AMRotRect*
0 Rectangle, with rotation*
0 The origin of the aperture is its center*
0 $1 length*
0 $2 width*
0 $3 Rotation angle, in degrees counterclockwise*
0 Add horizontal line*
21,1,$1,$2,0,0,$3*%
G04 Aperture macros list end*
%TA.AperFunction,ComponentPad*%
%ADD10R,1.508000X1.508000*%
%TD*%
%TA.AperFunction,ComponentPad*%
%ADD11C,1.508000*%
%TD*%
%TA.AperFunction,ComponentPad*%
%ADD12RotRect,1.700000X1.700000X315.000000*%
%TD*%
%TA.AperFunction,ComponentPad*%
%ADD13HorizOval,1.700000X0.000000X0.000000X0.000000X0.000000X0*%
%TD*%
%TA.AperFunction,ComponentPad*%
%ADD14O,2.000000X2.000000*%
%TD*%
%TA.AperFunction,ComponentPad*%
%ADD15C,1.600000*%
%TD*%
%TA.AperFunction,ComponentPad*%
%ADD16R,1.700000X1.700000*%
%TD*%
%TA.AperFunction,ComponentPad*%
%ADD17O,1.700000X1.700000*%
%TD*%
%TA.AperFunction,ComponentPad*%
%ADD18RotRect,1.700000X1.700000X135.000000*%
%TD*%
%TA.AperFunction,ComponentPad*%
%ADD19HorizOval,1.700000X0.000000X0.000000X0.000000X0.000000X0*%
%TD*%
%TA.AperFunction,ComponentPad*%
%ADD20O,1.820000X1.840000*%
%TD*%
%TA.AperFunction,ComponentPad*%
%ADD21RotRect,1.700000X1.700000X225.000000*%
%TD*%
%TA.AperFunction,ComponentPad*%
%ADD22HorizOval,1.700000X0.000000X0.000000X0.000000X0.000000X0*%
%TD*%
%TA.AperFunction,ComponentPad*%
%ADD23HorizOval,1.700000X0.000000X0.000000X0.000000X0.000000X0*%
%TD*%
%TA.AperFunction,ComponentPad*%
%ADD24RotRect,1.700000X1.700000X45.000000*%
%TD*%
%TA.AperFunction,ViaPad*%
%ADD25C,0.800000*%
%TD*%
%TA.AperFunction,Conductor*%
%ADD26C,0.250000*%
%TD*%
G04 APERTURE END LIST*
D10*
%TO.P,U1,1,GND*%
%TO.N,/RPi_GND*%
X128940000Y-148630000D03*
D11*
%TO.P,U1,2,VIO*%
%TO.N,/RPi_3V3*%
X128940000Y-151170000D03*
%TO.P,U1,3,M1B*%
%TO.N,Net-(J1-Pin_1)*%
X128940000Y-153710000D03*
%TO.P,U1,4,M1A*%
%TO.N,Net-(J1-Pin_2)*%
X128940000Y-156250000D03*
%TO.P,U1,5,M2A*%
%TO.N,Net-(J1-Pin_3)*%
X128940000Y-158790000D03*
%TO.P,U1,6,M2B*%
%TO.N,Net-(J1-Pin_4)*%
X128940000Y-161330000D03*
%TO.P,U1,7,GND*%
%TO.N,/GND*%
X128940000Y-163870000D03*
%TO.P,U1,8,VM*%
%TO.N,/12V*%
X128940000Y-166410000D03*
%TO.P,U1,9,DIR*%
%TO.N,/F_dir*%
X141640000Y-148630000D03*
%TO.P,U1,10,STEP*%
%TO.N,/F_step*%
X141640000Y-151170000D03*
%TO.P,U1,11,PDN*%
%TO.N,unconnected-(U1-PDN-Pad11)*%
X141640000Y-153710000D03*
%TO.P,U1,12,UART*%
%TO.N,unconnected-(U1-UART-Pad12)*%
X141640000Y-156250000D03*
%TO.P,U1,13,SPRD*%
%TO.N,unconnected-(U1-SPRD-Pad13)*%
X141640000Y-158790000D03*
%TO.P,U1,14,MS2*%
%TO.N,unconnected-(U1-MS2-Pad14)*%
X141640000Y-161330000D03*
%TO.P,U1,15,MS1*%
%TO.N,unconnected-(U1-MS1-Pad15)*%
X141640000Y-163870000D03*
%TO.P,U1,16,~{EN}*%
%TO.N,/Enable*%
X141640000Y-166410000D03*
%TO.P,U1,17,INDEX*%
%TO.N,unconnected-(U1-INDEX-Pad17)*%
X136560000Y-166410000D03*
%TO.P,U1,18,DIAG*%
%TO.N,unconnected-(U1-DIAG-Pad18)*%
X139100000Y-166410000D03*
%TD*%
D12*
%TO.P,J4,1,Pin_1*%
%TO.N,Net-(J4-Pin_1)*%
X44137006Y-38322994D03*
D13*
%TO.P,J4,2,Pin_2*%
%TO.N,Net-(J4-Pin_2)*%
X42340955Y-40119045D03*
%TO.P,J4,3,Pin_3*%
%TO.N,Net-(J4-Pin_3)*%
X40544904Y-41915096D03*
%TO.P,J4,4,Pin_4*%
%TO.N,Net-(J4-Pin_4)*%
X38748852Y-43711148D03*
%TD*%
D14*
%TO.P,J6,1,Pin_1*%
%TO.N,/12V*%
X118710000Y-115070000D03*
%TO.P,J6,2,Pin_2*%
%TO.N,/GND*%
X118710000Y-120070000D03*
%TD*%
D15*
%TO.P,C4,1*%
%TO.N,/12V*%
X84530000Y-34390000D03*
%TO.P,C4,2*%
%TO.N,/GND*%
X84530000Y-31890000D03*
%TD*%
D16*
%TO.P,J10,1,Pin_1*%
%TO.N,/USB-C 5V*%
X118730000Y-55300000D03*
D17*
%TO.P,J10,2,Pin_2*%
%TO.N,/USB-C GND*%
X118730000Y-52760000D03*
%TD*%
D18*
%TO.P,J3,1,Pin_1*%
%TO.N,Net-(J3-Pin_1)*%
X146812994Y-151517006D03*
D19*
%TO.P,J3,2,Pin_2*%
%TO.N,Net-(J3-Pin_2)*%
X148609045Y-149720955D03*
%TO.P,J3,3,Pin_3*%
%TO.N,Net-(J3-Pin_3)*%
X150405096Y-147924904D03*
%TO.P,J3,4,Pin_4*%
%TO.N,Net-(J3-Pin_4)*%
X152201148Y-146128852D03*
%TD*%
D15*
%TO.P,C5,1*%
%TO.N,/12V*%
X148400000Y-141720000D03*
%TO.P,C5,2*%
%TO.N,/GND*%
X148400000Y-139220000D03*
%TD*%
%TO.P,C3,1*%
%TO.N,/12V*%
X148360000Y-128950000D03*
%TO.P,C3,2*%
%TO.N,/GND*%
X148360000Y-131450000D03*
%TD*%
D10*
%TO.P,U2,1,GND*%
%TO.N,/RPi_GND*%
X110450000Y-34480000D03*
D11*
%TO.P,U2,2,VIO*%
%TO.N,/RPi_3V3*%
X112990000Y-34480000D03*
%TO.P,U2,3,M1B*%
%TO.N,Net-(J2-Pin_1)*%
X115530000Y-34480000D03*
%TO.P,U2,4,M1A*%
%TO.N,Net-(J2-Pin_2)*%
X118070000Y-34480000D03*
%TO.P,U2,5,M2A*%
%TO.N,Net-(J2-Pin_3)*%
X120610000Y-34480000D03*
%TO.P,U2,6,M2B*%
%TO.N,Net-(J2-Pin_4)*%
X123150000Y-34480000D03*
%TO.P,U2,7,GND*%
%TO.N,/GND*%
X125690000Y-34480000D03*
%TO.P,U2,8,VM*%
%TO.N,/12V*%
X128230000Y-34480000D03*
%TO.P,U2,9,DIR*%
%TO.N,/B_dir*%
X110450000Y-21780000D03*
%TO.P,U2,10,STEP*%
%TO.N,/B_step*%
X112990000Y-21780000D03*
%TO.P,U2,11,PDN*%
%TO.N,unconnected-(U2-PDN-Pad11)*%
X115530000Y-21780000D03*
%TO.P,U2,12,UART*%
%TO.N,unconnected-(U2-UART-Pad12)*%
X118070000Y-21780000D03*
%TO.P,U2,13,SPRD*%
%TO.N,unconnected-(U2-SPRD-Pad13)*%
X120610000Y-21780000D03*
%TO.P,U2,14,MS2*%
%TO.N,unconnected-(U2-MS2-Pad14)*%
X123150000Y-21780000D03*
%TO.P,U2,15,MS1*%
%TO.N,unconnected-(U2-MS1-Pad15)*%
X125690000Y-21780000D03*
%TO.P,U2,16,~{EN}*%
%TO.N,/Enable*%
X128230000Y-21780000D03*
%TO.P,U2,17,INDEX*%
%TO.N,unconnected-(U2-INDEX-Pad17)*%
X128230000Y-26860000D03*
%TO.P,U2,18,DIAG*%
%TO.N,unconnected-(U2-DIAG-Pad18)*%
X128230000Y-24320000D03*
%TD*%
D15*
%TO.P,C2,1*%
%TO.N,/12V*%
X132730000Y-34500000D03*
%TO.P,C2,2*%
%TO.N,/GND*%
X132730000Y-32000000D03*
%TD*%
%TO.P,C1,1*%
%TO.N,/12V*%
X128910000Y-170980000D03*
%TO.P,C1,2*%
%TO.N,/GND*%
X131410000Y-170980000D03*
%TD*%
D10*
%TO.P,U3,1,GND*%
%TO.N,/RPi_GND*%
X170950000Y-128950000D03*
D11*
%TO.P,U3,2,VIO*%
%TO.N,/RPi_3V3*%
X168410000Y-128950000D03*
%TO.P,U3,3,M1B*%
%TO.N,Net-(J3-Pin_1)*%
X165870000Y-128950000D03*
%TO.P,U3,4,M1A*%
%TO.N,Net-(J3-Pin_2)*%
X163330000Y-128950000D03*
%TO.P,U3,5,M2A*%
%TO.N,Net-(J3-Pin_3)*%
X160790000Y-128950000D03*
%TO.P,U3,6,M2B*%
%TO.N,Net-(J3-Pin_4)*%
X158250000Y-128950000D03*
%TO.P,U3,7,GND*%
%TO.N,/GND*%
X155710000Y-128950000D03*
%TO.P,U3,8,VM*%
%TO.N,/12V*%
X153170000Y-128950000D03*
%TO.P,U3,9,DIR*%
%TO.N,/L_dir*%
X170950000Y-141650000D03*
%TO.P,U3,10,STEP*%
%TO.N,/L_step*%
X168410000Y-141650000D03*
%TO.P,U3,11,PDN*%
%TO.N,unconnected-(U3-PDN-Pad11)*%
X165870000Y-141650000D03*
%TO.P,U3,12,UART*%
%TO.N,unconnected-(U3-UART-Pad12)*%
X163330000Y-141650000D03*
%TO.P,U3,13,SPRD*%
%TO.N,unconnected-(U3-SPRD-Pad13)*%
X160790000Y-141650000D03*
%TO.P,U3,14,MS2*%
%TO.N,unconnected-(U3-MS2-Pad14)*%
X158250000Y-141650000D03*
%TO.P,U3,15,MS1*%
%TO.N,unconnected-(U3-MS1-Pad15)*%
X155710000Y-141650000D03*
%TO.P,U3,16,~{EN}*%
%TO.N,/Enable*%
X153170000Y-141650000D03*
%TO.P,U3,17,INDEX*%
%TO.N,unconnected-(U3-INDEX-Pad17)*%
X153170000Y-136570000D03*
%TO.P,U3,18,DIAG*%
%TO.N,unconnected-(U3-DIAG-Pad18)*%
X153170000Y-139110000D03*
%TD*%
D20*
%TO.P,J9,1,Pin_1*%
%TO.N,/USB-C 5V*%
X118730000Y-69410000D03*
%TO.P,J9,2,Pin_2*%
%TO.N,/USB-C GND*%
X118730000Y-74410000D03*
%TD*%
D21*
%TO.P,J2,1,Pin_1*%
%TO.N,Net-(J2-Pin_1)*%
X152067006Y-43717006D03*
D22*
%TO.P,J2,2,Pin_2*%
%TO.N,Net-(J2-Pin_2)*%
X150270955Y-41920955D03*
%TO.P,J2,3,Pin_3*%
%TO.N,Net-(J2-Pin_3)*%
X148474904Y-40124904D03*
%TO.P,J2,4,Pin_4*%
%TO.N,Net-(J2-Pin_4)*%
X146678852Y-38328852D03*
%TD*%
D10*
%TO.P,U5,1,GND*%
%TO.N,/RPi_GND*%
X125780000Y-141710000D03*
D11*
%TO.P,U5,2,VIO*%
%TO.N,/RPi_3V3*%
X128320000Y-141710000D03*
%TO.P,U5,3,M1B*%
%TO.N,Net-(J5-Pin_1)*%
X130860000Y-141710000D03*
%TO.P,U5,4,M1A*%
%TO.N,Net-(J5-Pin_2)*%
X133400000Y-141710000D03*
%TO.P,U5,5,M2A*%
%TO.N,Net-(J5-Pin_3)*%
X135940000Y-141710000D03*
%TO.P,U5,6,M2B*%
%TO.N,Net-(J5-Pin_4)*%
X138480000Y-141710000D03*
%TO.P,U5,7,GND*%
%TO.N,/GND*%
X141020000Y-141710000D03*
%TO.P,U5,8,VM*%
%TO.N,/12V*%
X143560000Y-141710000D03*
%TO.P,U5,9,DIR*%
%TO.N,/D_dir*%
X125780000Y-129010000D03*
%TO.P,U5,10,STEP*%
%TO.N,/D_step*%
X128320000Y-129010000D03*
%TO.P,U5,11,PDN*%
%TO.N,unconnected-(U5-PDN-Pad11)*%
X130860000Y-129010000D03*
%TO.P,U5,12,UART*%
%TO.N,unconnected-(U5-UART-Pad12)*%
X133400000Y-129010000D03*
%TO.P,U5,13,SPRD*%
%TO.N,unconnected-(U5-SPRD-Pad13)*%
X135940000Y-129010000D03*
%TO.P,U5,14,MS2*%
%TO.N,unconnected-(U5-MS2-Pad14)*%
X138480000Y-129010000D03*
%TO.P,U5,15,MS1*%
%TO.N,unconnected-(U5-MS1-Pad15)*%
X141020000Y-129010000D03*
%TO.P,U5,16,~{EN}*%
%TO.N,/Enable*%
X143560000Y-129010000D03*
%TO.P,U5,17,INDEX*%
%TO.N,unconnected-(U5-INDEX-Pad17)*%
X143560000Y-134090000D03*
%TO.P,U5,18,DIAG*%
%TO.N,unconnected-(U5-DIAG-Pad18)*%
X143560000Y-131550000D03*
%TD*%
D16*
%TO.P,J5,1,Pin_1*%
%TO.N,Net-(J5-Pin_1)*%
X91580000Y-136520000D03*
D17*
%TO.P,J5,2,Pin_2*%
%TO.N,Net-(J5-Pin_2)*%
X94120000Y-136520000D03*
%TO.P,J5,3,Pin_3*%
%TO.N,Net-(J5-Pin_3)*%
X96660000Y-136520000D03*
%TO.P,J5,4,Pin_4*%
%TO.N,Net-(J5-Pin_4)*%
X99200000Y-136520000D03*
%TD*%
D23*
%TO.P,J1,4,Pin_4*%
%TO.N,Net-(J1-Pin_4)*%
X44111148Y-151631148D03*
%TO.P,J1,3,Pin_3*%
%TO.N,Net-(J1-Pin_3)*%
X42315096Y-149835096D03*
%TO.P,J1,2,Pin_2*%
%TO.N,Net-(J1-Pin_2)*%
X40519045Y-148039045D03*
D24*
%TO.P,J1,1,Pin_1*%
%TO.N,Net-(J1-Pin_1)*%
X38722994Y-146242994D03*
%TD*%
D10*
%TO.P,U4,1,GND*%
%TO.N,/RPi_GND*%
X62190000Y-34390000D03*
D11*
%TO.P,U4,2,VIO*%
%TO.N,/RPi_3V3*%
X64730000Y-34390000D03*
%TO.P,U4,3,M1B*%
%TO.N,Net-(J4-Pin_1)*%
X67270000Y-34390000D03*
%TO.P,U4,4,M1A*%
%TO.N,Net-(J4-Pin_2)*%
X69810000Y-34390000D03*
%TO.P,U4,5,M2A*%
%TO.N,Net-(J4-Pin_3)*%
X72350000Y-34390000D03*
%TO.P,U4,6,M2B*%
%TO.N,Net-(J4-Pin_4)*%
X74890000Y-34390000D03*
%TO.P,U4,7,GND*%
%TO.N,/GND*%
X77430000Y-34390000D03*
%TO.P,U4,8,VM*%
%TO.N,/12V*%
X79970000Y-34390000D03*
%TO.P,U4,9,DIR*%
%TO.N,/R_dir*%
X62190000Y-21690000D03*
%TO.P,U4,10,STEP*%
%TO.N,/R_step*%
X64730000Y-21690000D03*
%TO.P,U4,11,PDN*%
%TO.N,unconnected-(U4-PDN-Pad11)*%
X67270000Y-21690000D03*
%TO.P,U4,12,UART*%
%TO.N,unconnected-(U4-UART-Pad12)*%
X69810000Y-21690000D03*
%TO.P,U4,13,SPRD*%
%TO.N,unconnected-(U4-SPRD-Pad13)*%
X72350000Y-21690000D03*
%TO.P,U4,14,MS2*%
%TO.N,unconnected-(U4-MS2-Pad14)*%
X74890000Y-21690000D03*
%TO.P,U4,15,MS1*%
%TO.N,unconnected-(U4-MS1-Pad15)*%
X77430000Y-21690000D03*
%TO.P,U4,16,~{EN}*%
%TO.N,/Enable*%
X79970000Y-21690000D03*
%TO.P,U4,17,INDEX*%
%TO.N,unconnected-(U4-INDEX-Pad17)*%
X79970000Y-26770000D03*
%TO.P,U4,18,DIAG*%
%TO.N,unconnected-(U4-DIAG-Pad18)*%
X79970000Y-24230000D03*
%TD*%
D16*
%TO.P,J8,1,Pin_1*%
%TO.N,/RPi_3V3*%
X19640000Y-50265236D03*
D17*
%TO.P,J8,2,Pin_2*%
%TO.N,unconnected-(J8-Pin_2-Pad2)*%
X17100000Y-50265236D03*
%TO.P,J8,3,Pin_3*%
%TO.N,unconnected-(J8-Pin_3-Pad3)*%
X19640000Y-52805236D03*
%TO.P,J8,4,Pin_4*%
%TO.N,unconnected-(J8-Pin_4-Pad4)*%
X17100000Y-52805236D03*
%TO.P,J8,5,Pin_5*%
%TO.N,unconnected-(J8-Pin_5-Pad5)*%
X19640000Y-55345236D03*
%TO.P,J8,6,Pin_6*%
%TO.N,/RPi_GND*%
X17100000Y-55345236D03*
%TO.P,J8,7,Pin_7*%
%TO.N,unconnected-(J8-Pin_7-Pad7)*%
X19640000Y-57885236D03*
%TO.P,J8,8,Pin_8*%
%TO.N,unconnected-(J8-Pin_8-Pad8)*%
X17100000Y-57885236D03*
%TO.P,J8,9,Pin_9*%
%TO.N,unconnected-(J8-Pin_9-Pad9)*%
X19640000Y-60425236D03*
%TO.P,J8,10,Pin_10*%
%TO.N,unconnected-(J8-Pin_10-Pad10)*%
X17100000Y-60425236D03*
%TO.P,J8,11,Pin_11*%
%TO.N,/R_dir*%
X19640000Y-62965236D03*
%TO.P,J8,12,Pin_12*%
%TO.N,unconnected-(J8-Pin_12-Pad12)*%
X17100000Y-62965236D03*
%TO.P,J8,13,Pin_13*%
%TO.N,/R_step*%
X19640000Y-65505236D03*
%TO.P,J8,14,Pin_14*%
%TO.N,unconnected-(J8-Pin_14-Pad14)*%
X17100000Y-65505236D03*
%TO.P,J8,15,Pin_15*%
%TO.N,/B_step*%
X19640000Y-68045236D03*
%TO.P,J8,16,Pin_16*%
%TO.N,/B_dir*%
X17100000Y-68045236D03*
%TO.P,J8,17,Pin_17*%
%TO.N,unconnected-(J8-Pin_17-Pad17)*%
X19640000Y-70585236D03*
%TO.P,J8,18,Pin_18*%
%TO.N,/L_dir*%
X17100000Y-70585236D03*
%TO.P,J8,19,Pin_19*%
%TO.N,unconnected-(J8-Pin_19-Pad19)*%
X19640000Y-73125236D03*
%TO.P,J8,20,Pin_20*%
%TO.N,unconnected-(J8-Pin_20-Pad20)*%
X17100000Y-73125236D03*
%TO.P,J8,21,Pin_21*%
%TO.N,unconnected-(J8-Pin_21-Pad21)*%
X19640000Y-75665236D03*
%TO.P,J8,22,Pin_22*%
%TO.N,/L_step*%
X17100000Y-75665236D03*
%TO.P,J8,23,Pin_23*%
%TO.N,unconnected-(J8-Pin_23-Pad23)*%
X19640000Y-78205236D03*
%TO.P,J8,24,Pin_24*%
%TO.N,unconnected-(J8-Pin_24-Pad24)*%
X17100000Y-78205236D03*
%TO.P,J8,25,Pin_25*%
%TO.N,unconnected-(J8-Pin_25-Pad25)*%
X19640000Y-80745236D03*
%TO.P,J8,26,Pin_26*%
%TO.N,unconnected-(J8-Pin_26-Pad26)*%
X17100000Y-80745236D03*
%TO.P,J8,27,Pin_27*%
%TO.N,unconnected-(J8-Pin_27-Pad27)*%
X19640000Y-83285236D03*
%TO.P,J8,28,Pin_28*%
%TO.N,unconnected-(J8-Pin_28-Pad28)*%
X17100000Y-83285236D03*
%TO.P,J8,29,Pin_29*%
%TO.N,/F_dir*%
X19640000Y-85825236D03*
%TO.P,J8,30,Pin_30*%
%TO.N,unconnected-(J8-Pin_30-Pad30)*%
X17100000Y-85825236D03*
%TO.P,J8,31,Pin_31*%
%TO.N,/F_step*%
X19640000Y-88365236D03*
%TO.P,J8,32,Pin_32*%
%TO.N,unconnected-(J8-Pin_32-Pad32)*%
X17100000Y-88365236D03*
%TO.P,J8,33,Pin_33*%
%TO.N,unconnected-(J8-Pin_33-Pad33)*%
X19640000Y-90905236D03*
%TO.P,J8,34,Pin_34*%
%TO.N,unconnected-(J8-Pin_34-Pad34)*%
X17100000Y-90905236D03*
%TO.P,J8,35,Pin_35*%
%TO.N,unconnected-(J8-Pin_35-Pad35)*%
X19640000Y-93445236D03*
%TO.P,J8,36,Pin_36*%
%TO.N,/D_step*%
X17100000Y-93445236D03*
%TO.P,J8,37,Pin_37*%
%TO.N,/D_dir*%
X19640000Y-95985236D03*
%TO.P,J8,38,Pin_38*%
%TO.N,unconnected-(J8-Pin_38-Pad38)*%
X17100000Y-95985236D03*
%TO.P,J8,39,Pin_39*%
%TO.N,unconnected-(J8-Pin_39-Pad39)*%
X19640000Y-98525236D03*
%TO.P,J8,40,Pin_40*%
%TO.N,/Enable*%
X17100000Y-98525236D03*
%TD*%
D14*
%TO.P,J7,1,Pin_1*%
%TO.N,/12V*%
X118720000Y-106970000D03*
%TO.P,J7,2,Pin_2*%
%TO.N,/GND*%
X118720000Y-101970000D03*
%TD*%
D25*
%TO.N,/F_dir*%
X137200000Y-144200000D03*
%TO.N,/F_step*%
X134640000Y-144200000D03*
%TO.N,/RPi_GND*%
X122660000Y-95950000D03*
%TO.N,/RPi_3V3*%
X124220000Y-94600000D03*
%TD*%
D26*
%TO.N,/Enable*%
X138820000Y-125050000D02*
X138820000Y-32370000D01*
X142780000Y-129010000D02*
X138820000Y-125050000D01*
X138820000Y-32370000D02*
X128230000Y-21780000D01*
X143560000Y-129010000D02*
X142780000Y-129010000D01*
%TO.N,/F_dir*%
X137320000Y-144300000D02*
X137310000Y-144300000D01*
X137310000Y-144300000D02*
X137290000Y-144280000D01*
X137320000Y-144310000D02*
X137320000Y-144300000D01*
X141640000Y-148630000D02*
X137320000Y-144310000D01*
%TO.N,/F_step*%
X134720000Y-144250000D02*
X134760000Y-144250000D01*
X134640000Y-144200000D02*
X134660000Y-144250000D01*
X134660000Y-144250000D02*
X134710000Y-144250000D01*
X141640000Y-151170000D02*
X134720000Y-144250000D01*
X134760000Y-144250000D02*
X134640000Y-144200000D01*
%TO.N,/RPi_GND*%
X170950000Y-128950000D02*
X169670000Y-130230000D01*
X168460000Y-143410000D02*
X127480000Y-143410000D01*
X21220000Y-49730000D02*
X39160000Y-31790000D01*
X169670000Y-142200000D02*
X168460000Y-143410000D01*
X21220000Y-53220000D02*
X21220000Y-49730000D01*
X39160000Y-31790000D02*
X59590000Y-31790000D01*
X18365236Y-54080000D02*
X20360000Y-54080000D01*
X20360000Y-54080000D02*
X21220000Y-53220000D01*
X59590000Y-31790000D02*
X62190000Y-34390000D01*
X110450000Y-34480000D02*
X122660000Y-46690000D01*
X17100000Y-55345236D02*
X18365236Y-54080000D01*
X127480000Y-143410000D02*
X125780000Y-141710000D01*
X169670000Y-130230000D02*
X169670000Y-142200000D01*
X122660000Y-46690000D02*
X122660000Y-95950000D01*
%TO.N,/RPi_3V3*%
X66320000Y-35980000D02*
X64730000Y-34390000D01*
X112990000Y-34480000D02*
X111720000Y-33210000D01*
X19640000Y-50265236D02*
X38835236Y-31070000D01*
X111720000Y-33210000D02*
X109130000Y-33210000D01*
X106360000Y-35980000D02*
X66320000Y-35980000D01*
X109130000Y-33210000D02*
X106360000Y-35980000D01*
X129570000Y-142960000D02*
X128320000Y-141710000D01*
X167130000Y-142180000D02*
X166350000Y-142960000D01*
X167130000Y-130230000D02*
X167130000Y-142180000D01*
X166350000Y-142960000D02*
X129570000Y-142960000D01*
X168410000Y-128950000D02*
X167130000Y-130230000D01*
X124220000Y-94600000D02*
X124220000Y-45710000D01*
X61410000Y-31070000D02*
X64730000Y-34390000D01*
X38835236Y-31070000D02*
X61410000Y-31070000D01*
X124220000Y-45710000D02*
X112990000Y-34480000D01*
%TO.N,/GND*%
X125690000Y-34480000D02*
X125780000Y-34570000D01*
X125780000Y-94910000D02*
X118720000Y-101970000D01*
X132620000Y-31890000D02*
X132730000Y-32000000D01*
X153210000Y-131450000D02*
X155710000Y-128950000D01*
X118710000Y-127710000D02*
X118710000Y-120070000D01*
X131410000Y-170980000D02*
X131410000Y-166340000D01*
X146980000Y-132830000D02*
X123830000Y-132830000D01*
X131410000Y-166340000D02*
X128940000Y-163870000D01*
X84640000Y-32000000D02*
X84530000Y-31890000D01*
X148360000Y-131450000D02*
X153210000Y-131450000D01*
X123830000Y-132830000D02*
X118710000Y-127710000D01*
X148360000Y-131450000D02*
X146980000Y-132830000D01*
X125780000Y-34570000D02*
X125780000Y-94910000D01*
X84530000Y-31890000D02*
X132620000Y-31890000D01*
%TO.N,/12V*%
X147030000Y-130280000D02*
X123140000Y-130280000D01*
X120110000Y-116470000D02*
X118710000Y-115070000D01*
X118720000Y-106970000D02*
X132730000Y-92960000D01*
X86360000Y-32560000D02*
X84530000Y-34390000D01*
X148360000Y-128950000D02*
X147030000Y-130280000D01*
X126310000Y-32560000D02*
X86360000Y-32560000D01*
X128230000Y-34480000D02*
X126310000Y-32560000D01*
X132730000Y-92960000D02*
X132730000Y-34500000D01*
X123140000Y-130280000D02*
X120110000Y-127250000D01*
X148360000Y-128950000D02*
X153170000Y-128950000D01*
X120110000Y-127250000D02*
X120110000Y-116470000D01*
%TO.N,Net-(J5-Pin_1)*%
X129470000Y-140320000D02*
X130860000Y-141710000D01*
X91580000Y-136520000D02*
X95380000Y-140320000D01*
X95380000Y-140320000D02*
X129470000Y-140320000D01*
%TO.N,Net-(J5-Pin_2)*%
X130790000Y-139100000D02*
X133400000Y-141710000D01*
X94120000Y-136520000D02*
X96700000Y-139100000D01*
X96700000Y-139100000D02*
X130790000Y-139100000D01*
%TO.N,Net-(J5-Pin_3)*%
X97980000Y-137840000D02*
X132070000Y-137840000D01*
X132070000Y-137840000D02*
X135940000Y-141710000D01*
X96660000Y-136520000D02*
X97980000Y-137840000D01*
%TO.N,Net-(J5-Pin_4)*%
X133290000Y-136520000D02*
X138480000Y-141710000D01*
X99200000Y-136520000D02*
X133290000Y-136520000D01*
%TD*%
M02*
