%TF.GenerationSoftware,KiCad,Pcbnew,7.0.8*%
%TF.CreationDate,2023-11-07T13:43:57-08:00*%
%TF.ProjectId,Rubiks-Cube,52756269-6b73-42d4-9375-62652e6b6963,rev?*%
%TF.SameCoordinates,Original*%
%TF.FileFunction,Soldermask,Bot*%
%TF.FilePolarity,Negative*%
%FSLAX46Y46*%
G04 Gerber Fmt 4.6, Leading zero omitted, Abs format (unit mm)*
G04 Created by KiCad (PCBNEW 7.0.8) date 2023-11-07 13:43:57*
%MOMM*%
%LPD*%
G01*
G04 APERTURE LIST*
G04 Aperture macros list*
%AMRoundRect*
0 Rectangle with rounded corners*
0 $1 Rounding radius*
0 $2 $3 $4 $5 $6 $7 $8 $9 X,Y pos of 4 corners*
0 Add a 4 corners polygon primitive as box body*
4,1,4,$2,$3,$4,$5,$6,$7,$8,$9,$2,$3,0*
0 Add four circle primitives for the rounded corners*
1,1,$1+$1,$2,$3*
1,1,$1+$1,$4,$5*
1,1,$1+$1,$6,$7*
1,1,$1+$1,$8,$9*
0 Add four rect primitives between the rounded corners*
20,1,$1+$1,$2,$3,$4,$5,0*
20,1,$1+$1,$4,$5,$6,$7,0*
20,1,$1+$1,$6,$7,$8,$9,0*
20,1,$1+$1,$8,$9,$2,$3,0*%
%AMHorizOval*
0 Thick line with rounded ends*
0 $1 width*
0 $2 $3 position (X,Y) of the first rounded end (center of the circle)*
0 $4 $5 position (X,Y) of the second rounded end (center of the circle)*
0 Add line between two ends*
20,1,$1,$2,$3,$4,$5,0*
0 Add two circle primitives to create the rounded ends*
1,1,$1,$2,$3*
1,1,$1,$4,$5*%
%AMRotRect*
0 Rectangle, with rotation*
0 The origin of the aperture is its center*
0 $1 length*
0 $2 width*
0 $3 Rotation angle, in degrees counterclockwise*
0 Add horizontal line*
21,1,$1,$2,0,0,$3*%
G04 Aperture macros list end*
%ADD10RoundRect,0.102000X-0.754000X-0.754000X0.754000X-0.754000X0.754000X0.754000X-0.754000X0.754000X0*%
%ADD11C,1.712000*%
%ADD12RotRect,1.700000X1.700000X315.000000*%
%ADD13HorizOval,1.700000X0.000000X0.000000X0.000000X0.000000X0*%
%ADD14O,2.000000X2.000000*%
%ADD15C,1.600000*%
%ADD16R,1.700000X1.700000*%
%ADD17O,1.700000X1.700000*%
%ADD18RotRect,1.700000X1.700000X135.000000*%
%ADD19HorizOval,1.700000X0.000000X0.000000X0.000000X0.000000X0*%
%ADD20RoundRect,0.102000X0.754000X-0.754000X0.754000X0.754000X-0.754000X0.754000X-0.754000X-0.754000X0*%
%ADD21RoundRect,0.102000X-0.754000X0.754000X-0.754000X-0.754000X0.754000X-0.754000X0.754000X0.754000X0*%
%ADD22O,1.820000X1.840000*%
%ADD23RotRect,1.700000X1.700000X225.000000*%
%ADD24HorizOval,1.700000X0.000000X0.000000X0.000000X0.000000X0*%
%ADD25HorizOval,1.700000X0.000000X0.000000X0.000000X0.000000X0*%
%ADD26RotRect,1.700000X1.700000X45.000000*%
G04 APERTURE END LIST*
D10*
%TO.C,U1*%
X128940000Y-148630000D03*
D11*
X128940000Y-151170000D03*
X128940000Y-153710000D03*
X128940000Y-156250000D03*
X128940000Y-158790000D03*
X128940000Y-161330000D03*
X128940000Y-163870000D03*
X128940000Y-166410000D03*
X141640000Y-148630000D03*
X141640000Y-151170000D03*
X141640000Y-153710000D03*
X141640000Y-156250000D03*
X141640000Y-158790000D03*
X141640000Y-161330000D03*
X141640000Y-163870000D03*
X141640000Y-166410000D03*
X136560000Y-166410000D03*
X139100000Y-166410000D03*
%TD*%
D12*
%TO.C,J4*%
X44137006Y-38322994D03*
D13*
X42340955Y-40119045D03*
X40544904Y-41915096D03*
X38748852Y-43711148D03*
%TD*%
D14*
%TO.C,J6*%
X118710000Y-115070000D03*
X118710000Y-120070000D03*
%TD*%
D15*
%TO.C,C4*%
X84530000Y-34390000D03*
X84530000Y-31890000D03*
%TD*%
D16*
%TO.C,J10*%
X118730000Y-55300000D03*
D17*
X118730000Y-52760000D03*
%TD*%
D18*
%TO.C,J3*%
X146812994Y-151517006D03*
D19*
X148609045Y-149720955D03*
X150405096Y-147924904D03*
X152201148Y-146128852D03*
%TD*%
D15*
%TO.C,C5*%
X148400000Y-141720000D03*
X148400000Y-139220000D03*
%TD*%
%TO.C,C3*%
X148360000Y-128950000D03*
X148360000Y-131450000D03*
%TD*%
D20*
%TO.C,U2*%
X110450000Y-34480000D03*
D11*
X112990000Y-34480000D03*
X115530000Y-34480000D03*
X118070000Y-34480000D03*
X120610000Y-34480000D03*
X123150000Y-34480000D03*
X125690000Y-34480000D03*
X128230000Y-34480000D03*
X110450000Y-21780000D03*
X112990000Y-21780000D03*
X115530000Y-21780000D03*
X118070000Y-21780000D03*
X120610000Y-21780000D03*
X123150000Y-21780000D03*
X125690000Y-21780000D03*
X128230000Y-21780000D03*
X128230000Y-26860000D03*
X128230000Y-24320000D03*
%TD*%
D15*
%TO.C,C2*%
X132730000Y-34500000D03*
X132730000Y-32000000D03*
%TD*%
%TO.C,C1*%
X128910000Y-170980000D03*
X131410000Y-170980000D03*
%TD*%
D21*
%TO.C,U3*%
X170950000Y-128950000D03*
D11*
X168410000Y-128950000D03*
X165870000Y-128950000D03*
X163330000Y-128950000D03*
X160790000Y-128950000D03*
X158250000Y-128950000D03*
X155710000Y-128950000D03*
X153170000Y-128950000D03*
X170950000Y-141650000D03*
X168410000Y-141650000D03*
X165870000Y-141650000D03*
X163330000Y-141650000D03*
X160790000Y-141650000D03*
X158250000Y-141650000D03*
X155710000Y-141650000D03*
X153170000Y-141650000D03*
X153170000Y-136570000D03*
X153170000Y-139110000D03*
%TD*%
D22*
%TO.C,J9*%
X118730000Y-69410000D03*
X118730000Y-74410000D03*
%TD*%
D23*
%TO.C,J2*%
X152067006Y-43717006D03*
D24*
X150270955Y-41920955D03*
X148474904Y-40124904D03*
X146678852Y-38328852D03*
%TD*%
D20*
%TO.C,U5*%
X125780000Y-141710000D03*
D11*
X128320000Y-141710000D03*
X130860000Y-141710000D03*
X133400000Y-141710000D03*
X135940000Y-141710000D03*
X138480000Y-141710000D03*
X141020000Y-141710000D03*
X143560000Y-141710000D03*
X125780000Y-129010000D03*
X128320000Y-129010000D03*
X130860000Y-129010000D03*
X133400000Y-129010000D03*
X135940000Y-129010000D03*
X138480000Y-129010000D03*
X141020000Y-129010000D03*
X143560000Y-129010000D03*
X143560000Y-134090000D03*
X143560000Y-131550000D03*
%TD*%
D16*
%TO.C,J5*%
X91580000Y-136520000D03*
D17*
X94120000Y-136520000D03*
X96660000Y-136520000D03*
X99200000Y-136520000D03*
%TD*%
D25*
%TO.C,J1*%
X44111148Y-151631148D03*
X42315096Y-149835096D03*
X40519045Y-148039045D03*
D26*
X38722994Y-146242994D03*
%TD*%
D20*
%TO.C,U4*%
X62190000Y-34390000D03*
D11*
X64730000Y-34390000D03*
X67270000Y-34390000D03*
X69810000Y-34390000D03*
X72350000Y-34390000D03*
X74890000Y-34390000D03*
X77430000Y-34390000D03*
X79970000Y-34390000D03*
X62190000Y-21690000D03*
X64730000Y-21690000D03*
X67270000Y-21690000D03*
X69810000Y-21690000D03*
X72350000Y-21690000D03*
X74890000Y-21690000D03*
X77430000Y-21690000D03*
X79970000Y-21690000D03*
X79970000Y-26770000D03*
X79970000Y-24230000D03*
%TD*%
D16*
%TO.C,J8*%
X19640000Y-50265236D03*
D17*
X17100000Y-50265236D03*
X19640000Y-52805236D03*
X17100000Y-52805236D03*
X19640000Y-55345236D03*
X17100000Y-55345236D03*
X19640000Y-57885236D03*
X17100000Y-57885236D03*
X19640000Y-60425236D03*
X17100000Y-60425236D03*
X19640000Y-62965236D03*
X17100000Y-62965236D03*
X19640000Y-65505236D03*
X17100000Y-65505236D03*
X19640000Y-68045236D03*
X17100000Y-68045236D03*
X19640000Y-70585236D03*
X17100000Y-70585236D03*
X19640000Y-73125236D03*
X17100000Y-73125236D03*
X19640000Y-75665236D03*
X17100000Y-75665236D03*
X19640000Y-78205236D03*
X17100000Y-78205236D03*
X19640000Y-80745236D03*
X17100000Y-80745236D03*
X19640000Y-83285236D03*
X17100000Y-83285236D03*
X19640000Y-85825236D03*
X17100000Y-85825236D03*
X19640000Y-88365236D03*
X17100000Y-88365236D03*
X19640000Y-90905236D03*
X17100000Y-90905236D03*
X19640000Y-93445236D03*
X17100000Y-93445236D03*
X19640000Y-95985236D03*
X17100000Y-95985236D03*
X19640000Y-98525236D03*
X17100000Y-98525236D03*
%TD*%
D14*
%TO.C,J7*%
X118720000Y-106970000D03*
X118720000Y-101970000D03*
%TD*%
M02*
