M48
; DRILL file {KiCad 7.0.8} date 2023 November 07, Tuesday 13:43:54
; FORMAT={-:-/ absolute / inch / decimal}
; #@! TF.CreationDate,2023-11-07T13:43:54-08:00
; #@! TF.GenerationSoftware,Kicad,Pcbnew,7.0.8
; #@! TF.FileFunction,Plated,1,2,PTH
FMAT,2
INCH
; #@! TA.AperFunction,Plated,PTH,ViaDrill
T1C0.0157
; #@! TA.AperFunction,Plated,PTH,ComponentDrill
T2C0.0315
; #@! TA.AperFunction,Plated,PTH,ComponentDrill
T3C0.0394
; #@! TA.AperFunction,Plated,PTH,ComponentDrill
T4C0.0520
%
G90
G05
T1
X4.8291Y-3.7776
X4.8906Y-3.7244
X5.3008Y-5.6772
X5.4016Y-5.6772
T2
X3.328Y-1.2555
X3.328Y-1.3539
X5.0752Y-6.7315
X5.1736Y-6.7315
X5.2256Y-1.2598
X5.2256Y-1.3583
X5.8409Y-5.0768
X5.8409Y-5.1752
X5.8425Y-5.4811
X5.8425Y-5.5795
T3
X0.6732Y-1.9789
X0.6732Y-2.0789
X0.6732Y-2.1789
X0.6732Y-2.2789
X0.6732Y-2.3789
X0.6732Y-2.4789
X0.6732Y-2.5789
X0.6732Y-2.6789
X0.6732Y-2.7789
X0.6732Y-2.8789
X0.6732Y-2.9789
X0.6732Y-3.0789
X0.6732Y-3.1789
X0.6732Y-3.2789
X0.6732Y-3.3789
X0.6732Y-3.4789
X0.6732Y-3.5789
X0.6732Y-3.6789
X0.6732Y-3.7789
X0.6732Y-3.8789
X0.7732Y-1.9789
X0.7732Y-2.0789
X0.7732Y-2.1789
X0.7732Y-2.2789
X0.7732Y-2.3789
X0.7732Y-2.4789
X0.7732Y-2.5789
X0.7732Y-2.6789
X0.7732Y-2.7789
X0.7732Y-2.8789
X0.7732Y-2.9789
X0.7732Y-3.0789
X0.7732Y-3.1789
X0.7732Y-3.2789
X0.7732Y-3.3789
X0.7732Y-3.4789
X0.7732Y-3.5789
X0.7732Y-3.6789
X0.7732Y-3.7789
X0.7732Y-3.8789
X1.5245Y-5.7576
X1.5255Y-1.7209
X1.5952Y-5.8283
X1.5963Y-1.6502
X1.6659Y-5.899
X1.667Y-1.5795
X1.7367Y-5.9697
X1.7377Y-1.5088
X2.4484Y-0.8539
X2.4484Y-1.3539
X2.5484Y-0.8539
X2.5484Y-1.3539
X2.6484Y-0.8539
X2.6484Y-1.3539
X2.7484Y-0.8539
X2.7484Y-1.3539
X2.8484Y-0.8539
X2.8484Y-1.3539
X2.9484Y-0.8539
X2.9484Y-1.3539
X3.0484Y-0.8539
X3.0484Y-1.3539
X3.1484Y-0.8539
X3.1484Y-0.9539
X3.1484Y-1.0539
X3.1484Y-1.3539
X3.6055Y-5.3748
X3.7055Y-5.3748
X3.8055Y-5.3748
X3.9055Y-5.3748
X4.3484Y-0.8575
X4.3484Y-1.3575
X4.4484Y-0.8575
X4.4484Y-1.3575
X4.5484Y-0.8575
X4.5484Y-1.3575
X4.6484Y-0.8575
X4.6484Y-1.3575
X4.6744Y-2.0772
X4.6744Y-2.1772
X4.7484Y-0.8575
X4.7484Y-1.3575
X4.8484Y-0.8575
X4.8484Y-1.3575
X4.9484Y-0.8575
X4.9484Y-1.3575
X4.952Y-5.0791
X4.952Y-5.5791
X5.0484Y-0.8575
X5.0484Y-0.9575
X5.0484Y-1.0575
X5.0484Y-1.3575
X5.052Y-5.0791
X5.052Y-5.5791
X5.0764Y-5.8516
X5.0764Y-5.9516
X5.0764Y-6.0516
X5.0764Y-6.1516
X5.0764Y-6.2516
X5.0764Y-6.3516
X5.0764Y-6.4516
X5.0764Y-6.5516
X5.152Y-5.0791
X5.152Y-5.5791
X5.252Y-5.0791
X5.252Y-5.5791
X5.352Y-5.0791
X5.352Y-5.5791
X5.3764Y-6.5516
X5.452Y-5.0791
X5.452Y-5.5791
X5.4764Y-6.5516
X5.552Y-5.0791
X5.552Y-5.5791
X5.5764Y-5.8516
X5.5764Y-5.9516
X5.5764Y-6.0516
X5.5764Y-6.1516
X5.5764Y-6.2516
X5.5764Y-6.3516
X5.5764Y-6.4516
X5.5764Y-6.5516
X5.652Y-5.0791
X5.652Y-5.1791
X5.652Y-5.2791
X5.652Y-5.5791
X5.7748Y-1.509
X5.78Y-5.9652
X5.8455Y-1.5797
X5.8507Y-5.8945
X5.9162Y-1.6504
X5.9215Y-5.8238
X5.9869Y-1.7211
X5.9922Y-5.7531
X6.0303Y-5.0768
X6.0303Y-5.3768
X6.0303Y-5.4768
X6.0303Y-5.5768
X6.1303Y-5.0768
X6.1303Y-5.5768
X6.2303Y-5.0768
X6.2303Y-5.5768
X6.3303Y-5.0768
X6.3303Y-5.5768
X6.4303Y-5.0768
X6.4303Y-5.5768
X6.5303Y-5.0768
X6.5303Y-5.5768
X6.6303Y-5.0768
X6.6303Y-5.5768
X6.7303Y-5.0768
X6.7303Y-5.5768
T4
X4.6736Y-4.5303
X4.6736Y-4.7272
X4.674Y-4.0146
X4.674Y-4.2114
X4.6744Y-2.7327
X4.6744Y-2.9295
T0
M30
