%TF.GenerationSoftware,KiCad,Pcbnew,7.0.8*%
%TF.CreationDate,2023-11-07T13:43:57-08:00*%
%TF.ProjectId,Rubiks-Cube,52756269-6b73-42d4-9375-62652e6b6963,rev?*%
%TF.SameCoordinates,Original*%
%TF.FileFunction,Profile,NP*%
%FSLAX46Y46*%
G04 Gerber Fmt 4.6, Leading zero omitted, Abs format (unit mm)*
G04 Created by KiCad (PCBNEW 7.0.8) date 2023-11-07 13:43:57*
%MOMM*%
%LPD*%
G01*
G04 APERTURE LIST*
%TA.AperFunction,Profile*%
%ADD10C,0.100000*%
%TD*%
G04 APERTURE END LIST*
D10*
X141220001Y-48407071D02*
G75*
G03*
X139834072Y-49792983I96999J-1482929D01*
G01*
X110540000Y-131036628D02*
X116010471Y-125400865D01*
X24715628Y-99060472D02*
X30144236Y-93629080D01*
X142734236Y-15366156D02*
X48190000Y-15355236D01*
X122205605Y-147539553D02*
G75*
G03*
X118684235Y-146080922I-3521405J-3521347D01*
G01*
X107018608Y-132495260D02*
G75*
G03*
X110539999Y-131036627I-8J4979960D01*
G01*
X107018608Y-132495236D02*
X49105764Y-132516156D01*
X139834072Y-49792983D02*
X139834071Y-124048144D01*
X16560000Y-44925236D02*
X44668608Y-16813844D01*
X142704236Y-174084316D02*
X125850000Y-174080000D01*
X124459077Y-151865764D02*
X124464072Y-172694071D01*
X21194236Y-100519080D02*
X15360919Y-100515236D01*
X110594301Y-51455699D02*
G75*
G03*
X107072912Y-49997087I-3521401J-3521401D01*
G01*
X43529999Y-157220000D02*
X53224372Y-147544764D01*
X107072912Y-49997087D02*
X42018540Y-49989540D01*
X32949999Y-148590000D02*
X41569999Y-157220000D01*
X155896172Y-48407006D02*
G75*
G03*
X157282102Y-47021125I-96972J1482906D01*
G01*
X139834032Y-124048147D02*
G75*
G03*
X141220000Y-125434071I1482868J96947D01*
G01*
X30144237Y-93629081D02*
G75*
G03*
X31602845Y-90107688I-3521417J3521401D01*
G01*
X56745764Y-146086156D02*
G75*
G03*
X53224373Y-147544765I-64J-4979844D01*
G01*
X41570000Y-157220000D02*
G75*
G03*
X43529999Y-157220000I979999J1117228D01*
G01*
X155896175Y-48407054D02*
X141220000Y-48407054D01*
X32950001Y-146630001D02*
G75*
G03*
X32950001Y-148589999I1117199J-979999D01*
G01*
X157282103Y-47021125D02*
X157279095Y-29915761D01*
X141220000Y-125434072D02*
X173444071Y-125434072D01*
X174830026Y-126819998D02*
G75*
G03*
X173444071Y-125434072I-1483026J-97102D01*
G01*
X16560002Y-44925238D02*
G75*
G03*
X15101391Y-48446628I3521408J-3521402D01*
G01*
X48190000Y-15355226D02*
G75*
G03*
X44668609Y-16813845I0J-4979974D01*
G01*
X56745764Y-146086156D02*
X118684235Y-146080922D01*
X123000469Y-148344372D02*
X122205627Y-147539531D01*
X15090964Y-100245236D02*
G75*
G03*
X15360919Y-100515236I269936J-64D01*
G01*
X15090919Y-100245236D02*
X15101391Y-48446628D01*
X146225628Y-172625708D02*
X173361391Y-145505236D01*
X142704236Y-174084324D02*
G75*
G03*
X146225627Y-172625707I64J4979824D01*
G01*
X32949999Y-146630000D02*
X45584372Y-133974764D01*
X155820487Y-26394368D02*
X146255628Y-16824765D01*
X117484304Y-60405696D02*
X117469080Y-121879473D01*
X157279066Y-29915761D02*
G75*
G03*
X155820487Y-26394368I-4980166J-39D01*
G01*
X33068540Y-56879540D02*
G75*
G03*
X31609931Y-60400932I3521410J-3521400D01*
G01*
X31602845Y-90107688D02*
X31609931Y-60400932D01*
X42018540Y-49989557D02*
G75*
G03*
X38497149Y-51448149I-40J-4979943D01*
G01*
X174830000Y-126820000D02*
X174820000Y-141983844D01*
X116010472Y-125400866D02*
G75*
G03*
X117469080Y-121879473I-3521572J3521466D01*
G01*
X117484305Y-60405696D02*
G75*
G03*
X116025695Y-56884305I-4980005J-4D01*
G01*
X110594304Y-51455696D02*
X116025696Y-56884304D01*
X38497148Y-51448148D02*
X33068540Y-56879540D01*
X146255640Y-16824753D02*
G75*
G03*
X142734236Y-15366156I-3521440J-3521547D01*
G01*
X21194236Y-100519077D02*
G75*
G03*
X24715628Y-99060472I4J4979997D01*
G01*
X124459038Y-151865764D02*
G75*
G03*
X123000468Y-148344373I-4979938J64D01*
G01*
X49105764Y-132516156D02*
G75*
G03*
X45584373Y-133974765I-64J-4979844D01*
G01*
X124464006Y-172694075D02*
G75*
G03*
X125850000Y-174079999I1482994J97075D01*
G01*
X173361369Y-145505214D02*
G75*
G03*
X174820000Y-141983844I-3521369J3521414D01*
G01*
M02*
