%TF.GenerationSoftware,KiCad,Pcbnew,7.0.8*%
%TF.CreationDate,2023-11-07T13:43:56-08:00*%
%TF.ProjectId,Rubiks-Cube,52756269-6b73-42d4-9375-62652e6b6963,rev?*%
%TF.SameCoordinates,Original*%
%TF.FileFunction,Copper,L1,Top*%
%TF.FilePolarity,Positive*%
%FSLAX46Y46*%
G04 Gerber Fmt 4.6, Leading zero omitted, Abs format (unit mm)*
G04 Created by KiCad (PCBNEW 7.0.8) date 2023-11-07 13:43:56*
%MOMM*%
%LPD*%
G01*
G04 APERTURE LIST*
G04 Aperture macros list*
%AMHorizOval*
0 Thick line with rounded ends*
0 $1 width*
0 $2 $3 position (X,Y) of the first rounded end (center of the circle)*
0 $4 $5 position (X,Y) of the second rounded end (center of the circle)*
0 Add line between two ends*
20,1,$1,$2,$3,$4,$5,0*
0 Add two circle primitives to create the rounded ends*
1,1,$1,$2,$3*
1,1,$1,$4,$5*%
%AMRotRect*
0 Rectangle, with rotation*
0 The origin of the aperture is its center*
0 $1 length*
0 $2 width*
0 $3 Rotation angle, in degrees counterclockwise*
0 Add horizontal line*
21,1,$1,$2,0,0,$3*%
G04 Aperture macros list end*
%TA.AperFunction,ComponentPad*%
%ADD10R,1.508000X1.508000*%
%TD*%
%TA.AperFunction,ComponentPad*%
%ADD11C,1.508000*%
%TD*%
%TA.AperFunction,ComponentPad*%
%ADD12RotRect,1.700000X1.700000X315.000000*%
%TD*%
%TA.AperFunction,ComponentPad*%
%ADD13HorizOval,1.700000X0.000000X0.000000X0.000000X0.000000X0*%
%TD*%
%TA.AperFunction,ComponentPad*%
%ADD14O,2.000000X2.000000*%
%TD*%
%TA.AperFunction,ComponentPad*%
%ADD15C,1.600000*%
%TD*%
%TA.AperFunction,ComponentPad*%
%ADD16R,1.700000X1.700000*%
%TD*%
%TA.AperFunction,ComponentPad*%
%ADD17O,1.700000X1.700000*%
%TD*%
%TA.AperFunction,ComponentPad*%
%ADD18RotRect,1.700000X1.700000X135.000000*%
%TD*%
%TA.AperFunction,ComponentPad*%
%ADD19HorizOval,1.700000X0.000000X0.000000X0.000000X0.000000X0*%
%TD*%
%TA.AperFunction,ComponentPad*%
%ADD20O,1.820000X1.840000*%
%TD*%
%TA.AperFunction,ComponentPad*%
%ADD21RotRect,1.700000X1.700000X225.000000*%
%TD*%
%TA.AperFunction,ComponentPad*%
%ADD22HorizOval,1.700000X0.000000X0.000000X0.000000X0.000000X0*%
%TD*%
%TA.AperFunction,ComponentPad*%
%ADD23HorizOval,1.700000X0.000000X0.000000X0.000000X0.000000X0*%
%TD*%
%TA.AperFunction,ComponentPad*%
%ADD24RotRect,1.700000X1.700000X45.000000*%
%TD*%
%TA.AperFunction,ViaPad*%
%ADD25C,0.800000*%
%TD*%
%TA.AperFunction,Conductor*%
%ADD26C,0.250000*%
%TD*%
G04 APERTURE END LIST*
D10*
%TO.P,U1,1,GND*%
%TO.N,/RPi_GND*%
X128940000Y-148630000D03*
D11*
%TO.P,U1,2,VIO*%
%TO.N,/RPi_3V3*%
X128940000Y-151170000D03*
%TO.P,U1,3,M1B*%
%TO.N,Net-(J1-Pin_1)*%
X128940000Y-153710000D03*
%TO.P,U1,4,M1A*%
%TO.N,Net-(J1-Pin_2)*%
X128940000Y-156250000D03*
%TO.P,U1,5,M2A*%
%TO.N,Net-(J1-Pin_3)*%
X128940000Y-158790000D03*
%TO.P,U1,6,M2B*%
%TO.N,Net-(J1-Pin_4)*%
X128940000Y-161330000D03*
%TO.P,U1,7,GND*%
%TO.N,/GND*%
X128940000Y-163870000D03*
%TO.P,U1,8,VM*%
%TO.N,/12V*%
X128940000Y-166410000D03*
%TO.P,U1,9,DIR*%
%TO.N,/F_dir*%
X141640000Y-148630000D03*
%TO.P,U1,10,STEP*%
%TO.N,/F_step*%
X141640000Y-151170000D03*
%TO.P,U1,11,PDN*%
%TO.N,unconnected-(U1-PDN-Pad11)*%
X141640000Y-153710000D03*
%TO.P,U1,12,UART*%
%TO.N,unconnected-(U1-UART-Pad12)*%
X141640000Y-156250000D03*
%TO.P,U1,13,SPRD*%
%TO.N,unconnected-(U1-SPRD-Pad13)*%
X141640000Y-158790000D03*
%TO.P,U1,14,MS2*%
%TO.N,unconnected-(U1-MS2-Pad14)*%
X141640000Y-161330000D03*
%TO.P,U1,15,MS1*%
%TO.N,unconnected-(U1-MS1-Pad15)*%
X141640000Y-163870000D03*
%TO.P,U1,16,~{EN}*%
%TO.N,/Enable*%
X141640000Y-166410000D03*
%TO.P,U1,17,INDEX*%
%TO.N,unconnected-(U1-INDEX-Pad17)*%
X136560000Y-166410000D03*
%TO.P,U1,18,DIAG*%
%TO.N,unconnected-(U1-DIAG-Pad18)*%
X139100000Y-166410000D03*
%TD*%
D12*
%TO.P,J4,1,Pin_1*%
%TO.N,Net-(J4-Pin_1)*%
X44137006Y-38322994D03*
D13*
%TO.P,J4,2,Pin_2*%
%TO.N,Net-(J4-Pin_2)*%
X42340955Y-40119045D03*
%TO.P,J4,3,Pin_3*%
%TO.N,Net-(J4-Pin_3)*%
X40544904Y-41915096D03*
%TO.P,J4,4,Pin_4*%
%TO.N,Net-(J4-Pin_4)*%
X38748852Y-43711148D03*
%TD*%
D14*
%TO.P,J6,1,Pin_1*%
%TO.N,/12V*%
X118710000Y-115070000D03*
%TO.P,J6,2,Pin_2*%
%TO.N,/GND*%
X118710000Y-120070000D03*
%TD*%
D15*
%TO.P,C4,1*%
%TO.N,/12V*%
X84530000Y-34390000D03*
%TO.P,C4,2*%
%TO.N,/GND*%
X84530000Y-31890000D03*
%TD*%
D16*
%TO.P,J10,1,Pin_1*%
%TO.N,/USB-C 5V*%
X118730000Y-55300000D03*
D17*
%TO.P,J10,2,Pin_2*%
%TO.N,/USB-C GND*%
X118730000Y-52760000D03*
%TD*%
D18*
%TO.P,J3,1,Pin_1*%
%TO.N,Net-(J3-Pin_1)*%
X146812994Y-151517006D03*
D19*
%TO.P,J3,2,Pin_2*%
%TO.N,Net-(J3-Pin_2)*%
X148609045Y-149720955D03*
%TO.P,J3,3,Pin_3*%
%TO.N,Net-(J3-Pin_3)*%
X150405096Y-147924904D03*
%TO.P,J3,4,Pin_4*%
%TO.N,Net-(J3-Pin_4)*%
X152201148Y-146128852D03*
%TD*%
D15*
%TO.P,C5,1*%
%TO.N,/12V*%
X148400000Y-141720000D03*
%TO.P,C5,2*%
%TO.N,/GND*%
X148400000Y-139220000D03*
%TD*%
%TO.P,C3,1*%
%TO.N,/12V*%
X148360000Y-128950000D03*
%TO.P,C3,2*%
%TO.N,/GND*%
X148360000Y-131450000D03*
%TD*%
D10*
%TO.P,U2,1,GND*%
%TO.N,/RPi_GND*%
X110450000Y-34480000D03*
D11*
%TO.P,U2,2,VIO*%
%TO.N,/RPi_3V3*%
X112990000Y-34480000D03*
%TO.P,U2,3,M1B*%
%TO.N,Net-(J2-Pin_1)*%
X115530000Y-34480000D03*
%TO.P,U2,4,M1A*%
%TO.N,Net-(J2-Pin_2)*%
X118070000Y-34480000D03*
%TO.P,U2,5,M2A*%
%TO.N,Net-(J2-Pin_3)*%
X120610000Y-34480000D03*
%TO.P,U2,6,M2B*%
%TO.N,Net-(J2-Pin_4)*%
X123150000Y-34480000D03*
%TO.P,U2,7,GND*%
%TO.N,/GND*%
X125690000Y-34480000D03*
%TO.P,U2,8,VM*%
%TO.N,/12V*%
X128230000Y-34480000D03*
%TO.P,U2,9,DIR*%
%TO.N,/B_dir*%
X110450000Y-21780000D03*
%TO.P,U2,10,STEP*%
%TO.N,/B_step*%
X112990000Y-21780000D03*
%TO.P,U2,11,PDN*%
%TO.N,unconnected-(U2-PDN-Pad11)*%
X115530000Y-21780000D03*
%TO.P,U2,12,UART*%
%TO.N,unconnected-(U2-UART-Pad12)*%
X118070000Y-21780000D03*
%TO.P,U2,13,SPRD*%
%TO.N,unconnected-(U2-SPRD-Pad13)*%
X120610000Y-21780000D03*
%TO.P,U2,14,MS2*%
%TO.N,unconnected-(U2-MS2-Pad14)*%
X123150000Y-21780000D03*
%TO.P,U2,15,MS1*%
%TO.N,unconnected-(U2-MS1-Pad15)*%
X125690000Y-21780000D03*
%TO.P,U2,16,~{EN}*%
%TO.N,/Enable*%
X128230000Y-21780000D03*
%TO.P,U2,17,INDEX*%
%TO.N,unconnected-(U2-INDEX-Pad17)*%
X128230000Y-26860000D03*
%TO.P,U2,18,DIAG*%
%TO.N,unconnected-(U2-DIAG-Pad18)*%
X128230000Y-24320000D03*
%TD*%
D15*
%TO.P,C2,1*%
%TO.N,/12V*%
X132730000Y-34500000D03*
%TO.P,C2,2*%
%TO.N,/GND*%
X132730000Y-32000000D03*
%TD*%
%TO.P,C1,1*%
%TO.N,/12V*%
X128910000Y-170980000D03*
%TO.P,C1,2*%
%TO.N,/GND*%
X131410000Y-170980000D03*
%TD*%
D10*
%TO.P,U3,1,GND*%
%TO.N,/RPi_GND*%
X170950000Y-128950000D03*
D11*
%TO.P,U3,2,VIO*%
%TO.N,/RPi_3V3*%
X168410000Y-128950000D03*
%TO.P,U3,3,M1B*%
%TO.N,Net-(J3-Pin_1)*%
X165870000Y-128950000D03*
%TO.P,U3,4,M1A*%
%TO.N,Net-(J3-Pin_2)*%
X163330000Y-128950000D03*
%TO.P,U3,5,M2A*%
%TO.N,Net-(J3-Pin_3)*%
X160790000Y-128950000D03*
%TO.P,U3,6,M2B*%
%TO.N,Net-(J3-Pin_4)*%
X158250000Y-128950000D03*
%TO.P,U3,7,GND*%
%TO.N,/GND*%
X155710000Y-128950000D03*
%TO.P,U3,8,VM*%
%TO.N,/12V*%
X153170000Y-128950000D03*
%TO.P,U3,9,DIR*%
%TO.N,/L_dir*%
X170950000Y-141650000D03*
%TO.P,U3,10,STEP*%
%TO.N,/L_step*%
X168410000Y-141650000D03*
%TO.P,U3,11,PDN*%
%TO.N,unconnected-(U3-PDN-Pad11)*%
X165870000Y-141650000D03*
%TO.P,U3,12,UART*%
%TO.N,unconnected-(U3-UART-Pad12)*%
X163330000Y-141650000D03*
%TO.P,U3,13,SPRD*%
%TO.N,unconnected-(U3-SPRD-Pad13)*%
X160790000Y-141650000D03*
%TO.P,U3,14,MS2*%
%TO.N,unconnected-(U3-MS2-Pad14)*%
X158250000Y-141650000D03*
%TO.P,U3,15,MS1*%
%TO.N,unconnected-(U3-MS1-Pad15)*%
X155710000Y-141650000D03*
%TO.P,U3,16,~{EN}*%
%TO.N,/Enable*%
X153170000Y-141650000D03*
%TO.P,U3,17,INDEX*%
%TO.N,unconnected-(U3-INDEX-Pad17)*%
X153170000Y-136570000D03*
%TO.P,U3,18,DIAG*%
%TO.N,unconnected-(U3-DIAG-Pad18)*%
X153170000Y-139110000D03*
%TD*%
D20*
%TO.P,J9,1,Pin_1*%
%TO.N,/USB-C 5V*%
X118730000Y-69410000D03*
%TO.P,J9,2,Pin_2*%
%TO.N,/USB-C GND*%
X118730000Y-74410000D03*
%TD*%
D21*
%TO.P,J2,1,Pin_1*%
%TO.N,Net-(J2-Pin_1)*%
X152067006Y-43717006D03*
D22*
%TO.P,J2,2,Pin_2*%
%TO.N,Net-(J2-Pin_2)*%
X150270955Y-41920955D03*
%TO.P,J2,3,Pin_3*%
%TO.N,Net-(J2-Pin_3)*%
X148474904Y-40124904D03*
%TO.P,J2,4,Pin_4*%
%TO.N,Net-(J2-Pin_4)*%
X146678852Y-38328852D03*
%TD*%
D10*
%TO.P,U5,1,GND*%
%TO.N,/RPi_GND*%
X125780000Y-141710000D03*
D11*
%TO.P,U5,2,VIO*%
%TO.N,/RPi_3V3*%
X128320000Y-141710000D03*
%TO.P,U5,3,M1B*%
%TO.N,Net-(J5-Pin_1)*%
X130860000Y-141710000D03*
%TO.P,U5,4,M1A*%
%TO.N,Net-(J5-Pin_2)*%
X133400000Y-141710000D03*
%TO.P,U5,5,M2A*%
%TO.N,Net-(J5-Pin_3)*%
X135940000Y-141710000D03*
%TO.P,U5,6,M2B*%
%TO.N,Net-(J5-Pin_4)*%
X138480000Y-141710000D03*
%TO.P,U5,7,GND*%
%TO.N,/GND*%
X141020000Y-141710000D03*
%TO.P,U5,8,VM*%
%TO.N,/12V*%
X143560000Y-141710000D03*
%TO.P,U5,9,DIR*%
%TO.N,/D_dir*%
X125780000Y-129010000D03*
%TO.P,U5,10,STEP*%
%TO.N,/D_step*%
X128320000Y-129010000D03*
%TO.P,U5,11,PDN*%
%TO.N,unconnected-(U5-PDN-Pad11)*%
X130860000Y-129010000D03*
%TO.P,U5,12,UART*%
%TO.N,unconnected-(U5-UART-Pad12)*%
X133400000Y-129010000D03*
%TO.P,U5,13,SPRD*%
%TO.N,unconnected-(U5-SPRD-Pad13)*%
X135940000Y-129010000D03*
%TO.P,U5,14,MS2*%
%TO.N,unconnected-(U5-MS2-Pad14)*%
X138480000Y-129010000D03*
%TO.P,U5,15,MS1*%
%TO.N,unconnected-(U5-MS1-Pad15)*%
X141020000Y-129010000D03*
%TO.P,U5,16,~{EN}*%
%TO.N,/Enable*%
X143560000Y-129010000D03*
%TO.P,U5,17,INDEX*%
%TO.N,unconnected-(U5-INDEX-Pad17)*%
X143560000Y-134090000D03*
%TO.P,U5,18,DIAG*%
%TO.N,unconnected-(U5-DIAG-Pad18)*%
X143560000Y-131550000D03*
%TD*%
D16*
%TO.P,J5,1,Pin_1*%
%TO.N,Net-(J5-Pin_1)*%
X91580000Y-136520000D03*
D17*
%TO.P,J5,2,Pin_2*%
%TO.N,Net-(J5-Pin_2)*%
X94120000Y-136520000D03*
%TO.P,J5,3,Pin_3*%
%TO.N,Net-(J5-Pin_3)*%
X96660000Y-136520000D03*
%TO.P,J5,4,Pin_4*%
%TO.N,Net-(J5-Pin_4)*%
X99200000Y-136520000D03*
%TD*%
D23*
%TO.P,J1,4,Pin_4*%
%TO.N,Net-(J1-Pin_4)*%
X44111148Y-151631148D03*
%TO.P,J1,3,Pin_3*%
%TO.N,Net-(J1-Pin_3)*%
X42315096Y-149835096D03*
%TO.P,J1,2,Pin_2*%
%TO.N,Net-(J1-Pin_2)*%
X40519045Y-148039045D03*
D24*
%TO.P,J1,1,Pin_1*%
%TO.N,Net-(J1-Pin_1)*%
X38722994Y-146242994D03*
%TD*%
D10*
%TO.P,U4,1,GND*%
%TO.N,/RPi_GND*%
X62190000Y-34390000D03*
D11*
%TO.P,U4,2,VIO*%
%TO.N,/RPi_3V3*%
X64730000Y-34390000D03*
%TO.P,U4,3,M1B*%
%TO.N,Net-(J4-Pin_1)*%
X67270000Y-34390000D03*
%TO.P,U4,4,M1A*%
%TO.N,Net-(J4-Pin_2)*%
X69810000Y-34390000D03*
%TO.P,U4,5,M2A*%
%TO.N,Net-(J4-Pin_3)*%
X72350000Y-34390000D03*
%TO.P,U4,6,M2B*%
%TO.N,Net-(J4-Pin_4)*%
X74890000Y-34390000D03*
%TO.P,U4,7,GND*%
%TO.N,/GND*%
X77430000Y-34390000D03*
%TO.P,U4,8,VM*%
%TO.N,/12V*%
X79970000Y-34390000D03*
%TO.P,U4,9,DIR*%
%TO.N,/R_dir*%
X62190000Y-21690000D03*
%TO.P,U4,10,STEP*%
%TO.N,/R_step*%
X64730000Y-21690000D03*
%TO.P,U4,11,PDN*%
%TO.N,unconnected-(U4-PDN-Pad11)*%
X67270000Y-21690000D03*
%TO.P,U4,12,UART*%
%TO.N,unconnected-(U4-UART-Pad12)*%
X69810000Y-21690000D03*
%TO.P,U4,13,SPRD*%
%TO.N,unconnected-(U4-SPRD-Pad13)*%
X72350000Y-21690000D03*
%TO.P,U4,14,MS2*%
%TO.N,unconnected-(U4-MS2-Pad14)*%
X74890000Y-21690000D03*
%TO.P,U4,15,MS1*%
%TO.N,unconnected-(U4-MS1-Pad15)*%
X77430000Y-21690000D03*
%TO.P,U4,16,~{EN}*%
%TO.N,/Enable*%
X79970000Y-21690000D03*
%TO.P,U4,17,INDEX*%
%TO.N,unconnected-(U4-INDEX-Pad17)*%
X79970000Y-26770000D03*
%TO.P,U4,18,DIAG*%
%TO.N,unconnected-(U4-DIAG-Pad18)*%
X79970000Y-24230000D03*
%TD*%
D16*
%TO.P,J8,1,Pin_1*%
%TO.N,/RPi_3V3*%
X19640000Y-50265236D03*
D17*
%TO.P,J8,2,Pin_2*%
%TO.N,unconnected-(J8-Pin_2-Pad2)*%
X17100000Y-50265236D03*
%TO.P,J8,3,Pin_3*%
%TO.N,unconnected-(J8-Pin_3-Pad3)*%
X19640000Y-52805236D03*
%TO.P,J8,4,Pin_4*%
%TO.N,unconnected-(J8-Pin_4-Pad4)*%
X17100000Y-52805236D03*
%TO.P,J8,5,Pin_5*%
%TO.N,unconnected-(J8-Pin_5-Pad5)*%
X19640000Y-55345236D03*
%TO.P,J8,6,Pin_6*%
%TO.N,/RPi_GND*%
X17100000Y-55345236D03*
%TO.P,J8,7,Pin_7*%
%TO.N,unconnected-(J8-Pin_7-Pad7)*%
X19640000Y-57885236D03*
%TO.P,J8,8,Pin_8*%
%TO.N,unconnected-(J8-Pin_8-Pad8)*%
X17100000Y-57885236D03*
%TO.P,J8,9,Pin_9*%
%TO.N,unconnected-(J8-Pin_9-Pad9)*%
X19640000Y-60425236D03*
%TO.P,J8,10,Pin_10*%
%TO.N,unconnected-(J8-Pin_10-Pad10)*%
X17100000Y-60425236D03*
%TO.P,J8,11,Pin_11*%
%TO.N,/R_dir*%
X19640000Y-62965236D03*
%TO.P,J8,12,Pin_12*%
%TO.N,unconnected-(J8-Pin_12-Pad12)*%
X17100000Y-62965236D03*
%TO.P,J8,13,Pin_13*%
%TO.N,/R_step*%
X19640000Y-65505236D03*
%TO.P,J8,14,Pin_14*%
%TO.N,unconnected-(J8-Pin_14-Pad14)*%
X17100000Y-65505236D03*
%TO.P,J8,15,Pin_15*%
%TO.N,/B_step*%
X19640000Y-68045236D03*
%TO.P,J8,16,Pin_16*%
%TO.N,/B_dir*%
X17100000Y-68045236D03*
%TO.P,J8,17,Pin_17*%
%TO.N,unconnected-(J8-Pin_17-Pad17)*%
X19640000Y-70585236D03*
%TO.P,J8,18,Pin_18*%
%TO.N,/L_dir*%
X17100000Y-70585236D03*
%TO.P,J8,19,Pin_19*%
%TO.N,unconnected-(J8-Pin_19-Pad19)*%
X19640000Y-73125236D03*
%TO.P,J8,20,Pin_20*%
%TO.N,unconnected-(J8-Pin_20-Pad20)*%
X17100000Y-73125236D03*
%TO.P,J8,21,Pin_21*%
%TO.N,unconnected-(J8-Pin_21-Pad21)*%
X19640000Y-75665236D03*
%TO.P,J8,22,Pin_22*%
%TO.N,/L_step*%
X17100000Y-75665236D03*
%TO.P,J8,23,Pin_23*%
%TO.N,unconnected-(J8-Pin_23-Pad23)*%
X19640000Y-78205236D03*
%TO.P,J8,24,Pin_24*%
%TO.N,unconnected-(J8-Pin_24-Pad24)*%
X17100000Y-78205236D03*
%TO.P,J8,25,Pin_25*%
%TO.N,unconnected-(J8-Pin_25-Pad25)*%
X19640000Y-80745236D03*
%TO.P,J8,26,Pin_26*%
%TO.N,unconnected-(J8-Pin_26-Pad26)*%
X17100000Y-80745236D03*
%TO.P,J8,27,Pin_27*%
%TO.N,unconnected-(J8-Pin_27-Pad27)*%
X19640000Y-83285236D03*
%TO.P,J8,28,Pin_28*%
%TO.N,unconnected-(J8-Pin_28-Pad28)*%
X17100000Y-83285236D03*
%TO.P,J8,29,Pin_29*%
%TO.N,/F_dir*%
X19640000Y-85825236D03*
%TO.P,J8,30,Pin_30*%
%TO.N,unconnected-(J8-Pin_30-Pad30)*%
X17100000Y-85825236D03*
%TO.P,J8,31,Pin_31*%
%TO.N,/F_step*%
X19640000Y-88365236D03*
%TO.P,J8,32,Pin_32*%
%TO.N,unconnected-(J8-Pin_32-Pad32)*%
X17100000Y-88365236D03*
%TO.P,J8,33,Pin_33*%
%TO.N,unconnected-(J8-Pin_33-Pad33)*%
X19640000Y-90905236D03*
%TO.P,J8,34,Pin_34*%
%TO.N,unconnected-(J8-Pin_34-Pad34)*%
X17100000Y-90905236D03*
%TO.P,J8,35,Pin_35*%
%TO.N,unconnected-(J8-Pin_35-Pad35)*%
X19640000Y-93445236D03*
%TO.P,J8,36,Pin_36*%
%TO.N,/D_step*%
X17100000Y-93445236D03*
%TO.P,J8,37,Pin_37*%
%TO.N,/D_dir*%
X19640000Y-95985236D03*
%TO.P,J8,38,Pin_38*%
%TO.N,unconnected-(J8-Pin_38-Pad38)*%
X17100000Y-95985236D03*
%TO.P,J8,39,Pin_39*%
%TO.N,unconnected-(J8-Pin_39-Pad39)*%
X19640000Y-98525236D03*
%TO.P,J8,40,Pin_40*%
%TO.N,/Enable*%
X17100000Y-98525236D03*
%TD*%
D14*
%TO.P,J7,1,Pin_1*%
%TO.N,/12V*%
X118720000Y-106970000D03*
%TO.P,J7,2,Pin_2*%
%TO.N,/GND*%
X118720000Y-101970000D03*
%TD*%
D25*
%TO.N,/F_dir*%
X137200000Y-144200000D03*
%TO.N,/F_step*%
X134640000Y-144200000D03*
%TO.N,/RPi_GND*%
X122660000Y-95950000D03*
%TO.N,/RPi_3V3*%
X124220000Y-94600000D03*
%TD*%
D26*
%TO.N,/Enable*%
X150110000Y-127610000D02*
X144960000Y-127610000D01*
X81250000Y-20410000D02*
X126860000Y-20410000D01*
X126860000Y-20410000D02*
X128230000Y-21780000D01*
X142930000Y-165120000D02*
X142930000Y-151890000D01*
X144960000Y-127610000D02*
X143560000Y-129010000D01*
X15760000Y-97185236D02*
X15760000Y-49690000D01*
X15760000Y-49690000D02*
X45030000Y-20420000D01*
X141640000Y-166410000D02*
X142930000Y-165120000D01*
X17100000Y-98525236D02*
X15760000Y-97185236D01*
X151620000Y-140100000D02*
X151620000Y-129120000D01*
X153170000Y-141650000D02*
X151620000Y-140100000D01*
X151620000Y-129120000D02*
X150110000Y-127610000D01*
X45030000Y-20420000D02*
X78700000Y-20420000D01*
X142930000Y-151890000D02*
X153170000Y-141650000D01*
X79970000Y-21690000D02*
X81250000Y-20410000D01*
X78700000Y-20420000D02*
X79970000Y-21690000D01*
%TO.N,/F_dir*%
X137200000Y-144180000D02*
X137200000Y-144200000D01*
X137200000Y-144200000D02*
X137200000Y-52590000D01*
X131830000Y-47220000D02*
X29040000Y-47220000D01*
X26260000Y-79205236D02*
X19640000Y-85825236D01*
X137200000Y-52590000D02*
X131830000Y-47220000D01*
X26260000Y-50000000D02*
X26260000Y-79205236D01*
X29040000Y-47220000D02*
X26260000Y-50000000D01*
%TO.N,/F_step*%
X131430000Y-47950000D02*
X29380000Y-47950000D01*
X29380000Y-47950000D02*
X27000000Y-50330000D01*
X134640000Y-144200000D02*
X134640000Y-51160000D01*
X27000000Y-81005236D02*
X19640000Y-88365236D01*
X27000000Y-50330000D02*
X27000000Y-81005236D01*
X134640000Y-51160000D02*
X131430000Y-47950000D01*
%TO.N,Net-(J1-Pin_4)*%
X44111148Y-151631148D02*
X50482296Y-145260000D01*
X125460000Y-149190000D02*
X125460000Y-157850000D01*
X121530000Y-145260000D02*
X125460000Y-149190000D01*
X125460000Y-157850000D02*
X128940000Y-161330000D01*
X50482296Y-145260000D02*
X121530000Y-145260000D01*
%TO.N,Net-(J1-Pin_3)*%
X126220000Y-156070000D02*
X128940000Y-158790000D01*
X47680192Y-144470000D02*
X42315096Y-149835096D01*
X121820000Y-144470000D02*
X47680192Y-144470000D01*
X126220000Y-148870000D02*
X126220000Y-156070000D01*
X121820000Y-144470000D02*
X126220000Y-148870000D01*
%TO.N,Net-(J1-Pin_2)*%
X44908090Y-143650000D02*
X40519045Y-148039045D01*
X126900000Y-148430000D02*
X126900000Y-154210000D01*
X122120000Y-143650000D02*
X126900000Y-148430000D01*
X122120000Y-143650000D02*
X44908090Y-143650000D01*
X126900000Y-154210000D02*
X128940000Y-156250000D01*
%TO.N,Net-(J1-Pin_1)*%
X127570000Y-152360000D02*
X128920000Y-153710000D01*
X122450000Y-142870000D02*
X127570000Y-147990000D01*
X127570000Y-147990000D02*
X127570000Y-152360000D01*
X42095988Y-142870000D02*
X38722994Y-146242994D01*
X128920000Y-153710000D02*
X128940000Y-153710000D01*
X122450000Y-142870000D02*
X42095988Y-142870000D01*
%TO.N,Net-(J2-Pin_1)*%
X152067006Y-43717006D02*
X124767006Y-43717006D01*
X124767006Y-43717006D02*
X115530000Y-34480000D01*
%TO.N,Net-(J2-Pin_2)*%
X125510955Y-41920955D02*
X118070000Y-34480000D01*
X150270955Y-41920955D02*
X125510955Y-41920955D01*
%TO.N,Net-(J2-Pin_3)*%
X126254904Y-40124904D02*
X120610000Y-34480000D01*
X148474904Y-40124904D02*
X126254904Y-40124904D01*
%TO.N,Net-(J2-Pin_4)*%
X126998852Y-38328852D02*
X123150000Y-34480000D01*
X146678852Y-38328852D02*
X126998852Y-38328852D01*
%TO.N,/B_step*%
X106070000Y-28700000D02*
X112990000Y-21780000D01*
X23920000Y-49110000D02*
X44330000Y-28700000D01*
X23920000Y-64880000D02*
X23920000Y-49110000D01*
X19640000Y-68045236D02*
X20754764Y-68045236D01*
X20754764Y-68045236D02*
X23920000Y-64880000D01*
X44330000Y-28700000D02*
X106070000Y-28700000D01*
%TO.N,/B_dir*%
X104250000Y-27980000D02*
X110450000Y-21780000D01*
X44000000Y-27980000D02*
X104250000Y-27980000D01*
X23160000Y-48820000D02*
X44000000Y-27980000D01*
X23160000Y-63810000D02*
X23160000Y-48820000D01*
X17100000Y-68045236D02*
X18375236Y-66770000D01*
X18375236Y-66770000D02*
X20200000Y-66770000D01*
X20200000Y-66770000D02*
X23160000Y-63810000D01*
%TO.N,/L_step*%
X138020000Y-52300000D02*
X138020000Y-125430000D01*
X165560000Y-126860000D02*
X167130000Y-128430000D01*
X17100000Y-75665236D02*
X18365236Y-74400000D01*
X28630000Y-46550000D02*
X132270000Y-46550000D01*
X18365236Y-74400000D02*
X20480000Y-74400000D01*
X25480000Y-49700000D02*
X28630000Y-46550000D01*
X132270000Y-46550000D02*
X138020000Y-52300000D01*
X20480000Y-74400000D02*
X25480000Y-69400000D01*
X167130000Y-128430000D02*
X167130000Y-140370000D01*
X25480000Y-69400000D02*
X25480000Y-49700000D01*
X167130000Y-140370000D02*
X168410000Y-141650000D01*
X138020000Y-125430000D02*
X139450000Y-126860000D01*
X139450000Y-126860000D02*
X165560000Y-126860000D01*
%TO.N,/L_dir*%
X138810000Y-52030000D02*
X138810000Y-125050000D01*
X138810000Y-125050000D02*
X139920000Y-126160000D01*
X28260000Y-45850000D02*
X132630000Y-45850000D01*
X132630000Y-45850000D02*
X138810000Y-52030000D01*
X169670000Y-140370000D02*
X170950000Y-141650000D01*
X24710000Y-65880000D02*
X24710000Y-49400000D01*
X169670000Y-128370000D02*
X169670000Y-140370000D01*
X21280000Y-69310000D02*
X24710000Y-65880000D01*
X17100000Y-70585236D02*
X18375236Y-69310000D01*
X18375236Y-69310000D02*
X21280000Y-69310000D01*
X167460000Y-126160000D02*
X169670000Y-128370000D01*
X139920000Y-126160000D02*
X167460000Y-126160000D01*
X24710000Y-49400000D02*
X28260000Y-45850000D01*
%TO.N,/D_step*%
X122580000Y-48680000D02*
X128320000Y-54420000D01*
X27750000Y-85300000D02*
X27750000Y-50630000D01*
X29700000Y-48680000D02*
X122580000Y-48680000D01*
X18365236Y-92180000D02*
X20870000Y-92180000D01*
X20870000Y-92180000D02*
X27750000Y-85300000D01*
X128320000Y-54420000D02*
X128320000Y-129010000D01*
X27750000Y-50630000D02*
X29700000Y-48680000D01*
X17100000Y-93445236D02*
X18365236Y-92180000D01*
%TO.N,/D_dir*%
X122160000Y-49380000D02*
X30040000Y-49380000D01*
X125780000Y-129010000D02*
X125780000Y-53000000D01*
X125780000Y-53000000D02*
X122160000Y-49380000D01*
X30040000Y-49380000D02*
X28500000Y-50920000D01*
X28500000Y-87125236D02*
X19640000Y-95985236D01*
X28500000Y-50920000D02*
X28500000Y-87125236D01*
%TO.N,/R_step*%
X63490000Y-22930000D02*
X64730000Y-21690000D01*
X19640000Y-65505236D02*
X22420000Y-62725236D01*
X48020000Y-22930000D02*
X63490000Y-22930000D01*
X22420000Y-48530000D02*
X48020000Y-22930000D01*
X22420000Y-62725236D02*
X22420000Y-48530000D01*
%TO.N,/R_dir*%
X19640000Y-62965236D02*
X21670000Y-60935236D01*
X48220000Y-21690000D02*
X62190000Y-21690000D01*
X21670000Y-48240000D02*
X48220000Y-21690000D01*
X21670000Y-60935236D02*
X21670000Y-48240000D01*
%TO.N,/RPi_GND*%
X106600000Y-30630000D02*
X65950000Y-30630000D01*
X128940000Y-148630000D02*
X128940000Y-144870000D01*
X110450000Y-34480000D02*
X106600000Y-30630000D01*
X128940000Y-144870000D02*
X125780000Y-141710000D01*
X122660000Y-138590000D02*
X122660000Y-95950000D01*
X65950000Y-30630000D02*
X62190000Y-34390000D01*
X125780000Y-141710000D02*
X122660000Y-138590000D01*
%TO.N,/RPi_3V3*%
X130150000Y-149960000D02*
X130150000Y-143540000D01*
X124220000Y-94600000D02*
X124220000Y-137610000D01*
X124220000Y-137610000D02*
X128320000Y-141710000D01*
X128940000Y-151170000D02*
X130150000Y-149960000D01*
X130150000Y-143540000D02*
X128320000Y-141710000D01*
%TO.N,/GND*%
X84530000Y-31890000D02*
X79930000Y-31890000D01*
X125690000Y-34480000D02*
X128280000Y-31890000D01*
X118710000Y-120070000D02*
X120110000Y-118670000D01*
X148360000Y-139180000D02*
X148400000Y-139220000D01*
X148400000Y-139220000D02*
X143510000Y-139220000D01*
X128940000Y-163870000D02*
X130160000Y-162650000D01*
X143510000Y-139220000D02*
X141020000Y-141710000D01*
X79930000Y-31890000D02*
X77430000Y-34390000D01*
X84640000Y-32000000D02*
X84530000Y-31890000D01*
X132620000Y-31890000D02*
X132730000Y-32000000D01*
X120110000Y-118670000D02*
X120110000Y-103360000D01*
X130160000Y-152570000D02*
X141020000Y-141710000D01*
X148360000Y-131450000D02*
X148360000Y-139180000D01*
X130160000Y-162650000D02*
X130160000Y-152570000D01*
X120110000Y-103360000D02*
X118720000Y-101970000D01*
X128280000Y-31890000D02*
X132620000Y-31890000D01*
%TO.N,/12V*%
X148400000Y-141720000D02*
X143570000Y-141720000D01*
X150040000Y-140080000D02*
X150040000Y-130630000D01*
X132730000Y-34500000D02*
X128250000Y-34500000D01*
X150040000Y-130630000D02*
X148360000Y-128950000D01*
X128910000Y-166440000D02*
X128940000Y-166410000D01*
X128910000Y-170980000D02*
X128910000Y-166440000D01*
X130610000Y-164740000D02*
X130610000Y-154660000D01*
X128250000Y-34500000D02*
X128230000Y-34480000D01*
X118710000Y-106980000D02*
X118720000Y-106970000D01*
X130610000Y-154660000D02*
X143560000Y-141710000D01*
X128940000Y-166410000D02*
X130610000Y-164740000D01*
X143570000Y-141720000D02*
X143560000Y-141710000D01*
X79970000Y-34390000D02*
X84530000Y-34390000D01*
X118710000Y-115070000D02*
X118710000Y-106980000D01*
X148400000Y-141720000D02*
X150040000Y-140080000D01*
%TO.N,Net-(J3-Pin_1)*%
X155322994Y-151517006D02*
X164600000Y-142240000D01*
X146812994Y-151517006D02*
X155322994Y-151517006D01*
X164600000Y-130220000D02*
X165870000Y-128950000D01*
X164600000Y-142240000D02*
X164600000Y-130220000D01*
%TO.N,Net-(J3-Pin_2)*%
X148609045Y-149720955D02*
X154689045Y-149720955D01*
X154689045Y-149720955D02*
X162060000Y-142350000D01*
X162060000Y-130220000D02*
X163330000Y-128950000D01*
X162060000Y-142350000D02*
X162060000Y-130220000D01*
%TO.N,Net-(J3-Pin_3)*%
X159530000Y-142270000D02*
X159530000Y-130210000D01*
X153875096Y-147924904D02*
X159530000Y-142270000D01*
X150405096Y-147924904D02*
X153875096Y-147924904D01*
X159530000Y-130210000D02*
X160790000Y-128950000D01*
%TO.N,Net-(J3-Pin_4)*%
X156980000Y-142240000D02*
X156980000Y-130220000D01*
X152201148Y-146128852D02*
X153091148Y-146128852D01*
X153091148Y-146128852D02*
X156980000Y-142240000D01*
X156980000Y-130220000D02*
X158250000Y-128950000D01*
%TO.N,Net-(J4-Pin_1)*%
X63337006Y-38322994D02*
X67270000Y-34390000D01*
X44137006Y-38322994D02*
X63337006Y-38322994D01*
%TO.N,Net-(J4-Pin_2)*%
X42340955Y-40119045D02*
X64080955Y-40119045D01*
X64080955Y-40119045D02*
X69810000Y-34390000D01*
%TO.N,Net-(J4-Pin_3)*%
X64824904Y-41915096D02*
X72350000Y-34390000D01*
X40544904Y-41915096D02*
X64824904Y-41915096D01*
%TO.N,Net-(J4-Pin_4)*%
X65568852Y-43711148D02*
X74890000Y-34390000D01*
X38748852Y-43711148D02*
X65568852Y-43711148D01*
%TO.N,/USB-C GND*%
X118730000Y-74410000D02*
X121110000Y-72030000D01*
X118730000Y-52760000D02*
X121110000Y-55140000D01*
X121110000Y-55140000D02*
X121110000Y-72030000D01*
%TO.N,/USB-C 5V*%
X118730000Y-69410000D02*
X118730000Y-55300000D01*
X118730000Y-69410000D02*
X119170000Y-68970000D01*
%TD*%
M02*
